<svg xmlns="http://www.w3.org/2000/svg" version="1.1" xmlns:xlink="http://www.w3.org/1999/xlink" xmlns:svgjs="http://svgjs.com/svgjs" width="512" height="512" x="0" y="0" viewBox="0 0 512 512" style="enable-background:new 0 0 512 512" xml:space="preserve" class=""><g><path fill="#ffffff" fill-rule="evenodd" d="M277.273 376.827a5.5 5.5 0 0 1 10.991 0v2.651A20.287 20.287 0 0 1 303.54 398.9a5.5 5.5 0 0 1-10.991 0c0-5.329-4.635-9.145-9.781-9.145s-9.781 3.816-9.781 9.145 4.636 9.144 9.781 9.144a21.062 21.062 0 0 1 14.6 5.834 19.743 19.743 0 0 1 6.17 14.3 20.287 20.287 0 0 1-15.276 19.417v2.651a5.5 5.5 0 0 1-10.991 0v-2.651A20.288 20.288 0 0 1 262 428.176a5.5 5.5 0 1 1 10.991 0c0 5.328 4.636 9.144 9.781 9.144s9.782-3.816 9.782-9.144a8.849 8.849 0 0 0-2.779-6.4 10.076 10.076 0 0 0-7-2.742c-11.174 0-20.772-8.78-20.772-20.135a20.289 20.289 0 0 1 15.277-19.418v-2.651zM290.485 34.81v53.233h53.232zM95.662 126.135a5.5 5.5 0 1 1 10.991 0c0 7.484 7.546 11.972 14.382 11.972s14.382-4.488 14.382-11.972c0-9.062-7.62-10.642-15.219-12.217-11.95-2.478-23.869-4.95-23.869-22.71 0-11.464 9.069-20.248 19.877-22.419v-5.718a5.5 5.5 0 0 1 10.991 0v5.718c10.808 2.171 19.877 10.955 19.877 22.419a5.5 5.5 0 0 1-10.991 0c0-7.484-7.545-11.973-14.381-11.973-6.8 0-14.383 4.462-14.383 11.973 0 8.852 7.525 10.413 15.068 11.977 12 2.487 24.021 4.981 24.021 22.95 0 11.2-8.687 19.89-19.211 22.277v5.86a5.5 5.5 0 0 1-10.991 0v-5.592c-11.086-1.944-20.544-10.824-20.544-22.545zM95.2 191.2a5.5 5.5 0 1 1 0-10.991h210.225a5.5 5.5 0 0 1 0 10.991zm81.683-42.938a5.5 5.5 0 0 1 0-10.991h128.542a5.5 5.5 0 0 1 0 10.991zm-51.655 291.721-.326-.738a69.846 69.846 0 0 1-2.711-7.208l-.706-2.247L108 426.727a5.477 5.477 0 0 1-4.272-5.45l.107-4.633H94.85v23.339zm237.251-223.507V93.538a5.478 5.478 0 0 0-1.61-3.885L332.585 61.37h52.068v155.106zm-47.245 25.465h115.724a8.043 8.043 0 0 1 8.016 8.016v43.43a8.026 8.026 0 0 1-8.016 8.015H315.234a8.042 8.042 0 0 1-8.015-8.015v-43.43a8.044 8.044 0 0 1 8.015-8.016zm112.749 10.991H318.21v37.479h109.773zM211.406 405.654q.366-3.353 1.033-6.607a26.811 26.811 0 0 0-50.153 6.607zm.395 18.8a72.338 72.338 0 0 1-.757-7.806h-48.753a26.8 26.8 0 0 0 44.743 13.88 27.176 27.176 0 0 0 4.767-6.074zm134.436 22.666h85.955A29.187 29.187 0 0 0 461.306 418V245.59a29.187 29.187 0 0 0-29.114-29.114h-36.548V55.875a5.5 5.5 0 0 0-5.5-5.5H321.6l-32.676-32.667a5.478 5.478 0 0 0-3.934-1.659H56.19a5.5 5.5 0 0 0-5.5 5.5v389.6a5.5 5.5 0 0 0 5.5 5.5h27.669v28.835a5.5 5.5 0 0 0 5.5 5.5h29.781l-1.447 2.077a5.491 5.491 0 0 0 .765 7.151l17.242 18.045a5.483 5.483 0 0 0 7.033.769l11.562-7.286 2.108 1.1a68.907 68.907 0 0 0 7.01 3.153l2.143.829 2.509 14.038a5.5 5.5 0 0 0 5.754 4.518l24.835.574a5.475 5.475 0 0 0 5.449-4.272l3.064-13.488 2.247-.707a69.337 69.337 0 0 0 7.21-2.711l2.117-.934 11.687 8.142a5.491 5.491 0 0 0 7.151-.765l7.124-6.8a71.849 71.849 0 0 0 101.537-27.3zm-98.422-96.3a71.565 71.565 0 0 1 37.072-9.038v-21.766H95.2a5.5 5.5 0 0 1 0-10.991h189.687v-31.946H95.2a5.5 5.5 0 0 1 0-10.991h189.687v-20.5a28.88 28.88 0 0 1 2.356-11.449H95.2a5.5 5.5 0 1 1 0-10.991h200.3a28.968 28.968 0 0 1 18.5-6.672h37.487V99.033h-66.5a5.5 5.5 0 0 1-5.5-5.5V27.04H61.685v378.614h42.4l.213-9.212a5.494 5.494 0 0 1 4.518-5.754l14.036-2.51.828-2.142a68.971 68.971 0 0 1 3.155-7.013l1.1-2.107-7.285-11.561a5.456 5.456 0 0 1-.894-2.4H95.2a5.5 5.5 0 0 1 0-10.991h32.879l11.393-10.879a5.491 5.491 0 0 1 7.151-.765l11.687 8.143 2.117-.935a69.651 69.651 0 0 1 7.21-2.711l2.248-.707 3.063-13.488a5.475 5.475 0 0 1 5.449-4.272l24.835.574a5.494 5.494 0 0 1 5.754 4.518l2.51 14.039 2.142.828a68.809 68.809 0 0 1 7.01 3.153l2.108 1.1 11.563-7.287a5.484 5.484 0 0 1 7.032.769l6.466 6.772zm-15.81 11.959a71.9 71.9 0 0 0-15.48 23.046q-.338-.372-.685-.736a37.759 37.759 0 1 0-1.25 53.384q.312-.3.616-.6a71.838 71.838 0 0 0 16.8 26.434q1.812 1.813 3.752 3.5l-2.735 2.612-10.543-7.343a5.485 5.485 0 0 0-5.344-.517l-4.936 2.179a57.765 57.765 0 0 1-6.05 2.282l-5.259 1.661a5.474 5.474 0 0 0-3.716 4.029l-2.768 12.2-16.312-.377-2.28-12.656a5.473 5.473 0 0 0-3.418-4.146l-5.036-1.947a58.655 58.655 0 0 1-5.9-2.681l-4.893-2.535a5.475 5.475 0 0 0-5.446.225l-10.587 6.672-11.273-11.806 7.346-10.545a5.485 5.485 0 0 0 .516-5.344l-2.18-4.936a57.972 57.972 0 0 1-2.282-6.049l-1.66-5.258a5.475 5.475 0 0 0-4.029-3.715l-12.2-2.769.377-16.313 12.65-2.29a5.475 5.475 0 0 0 4.146-3.418l1.947-5.036a58.7 58.7 0 0 1 2.683-5.9l2.534-4.893a5.475 5.475 0 0 0-.226-5.447l-6.669-10.584q5.9-5.636 11.806-11.273l10.543 7.344a5.485 5.485 0 0 0 5.344.516l4.936-2.179a57.7 57.7 0 0 1 6.051-2.282l5.259-1.66a5.478 5.478 0 0 0 3.715-4.03l2.769-12.2 16.312.377 2.279 12.657a5.472 5.472 0 0 0 3.418 4.145l5.036 1.948a58.1 58.1 0 0 1 5.895 2.68l4.893 2.535a5.473 5.473 0 0 0 5.446-.226l10.587-6.671 2.038 2.135a72.242 72.242 0 0 0-6.54 5.793zm50.764-10.038a60.8 60.8 0 1 0 42.993 17.808 60.615 60.615 0 0 0-42.993-17.808zM421.65 324.35a5.5 5.5 0 0 1 0 10.991h-12.919a5.5 5.5 0 0 1 0-10.991zm-40.743 0a5.5 5.5 0 1 1 0 10.991h-12.918a5.5 5.5 0 1 1 0-10.991zm-40.742 0a5.5 5.5 0 0 1 0 10.991h-12.919a5.5 5.5 0 0 1 0-10.991zm81.485 38.285a5.5 5.5 0 0 1 0 10.99h-12.919a5.5 5.5 0 0 1 0-10.99zm-40.743 0a5.5 5.5 0 1 1 0 10.99h-12.918a5.5 5.5 0 1 1 0-10.99zm-40.742 0a5.5 5.5 0 0 1 2.027 10.6 71.935 71.935 0 0 1 8.741 62.887h81.259A18.192 18.192 0 0 0 450.315 418V245.59a18.191 18.191 0 0 0-18.123-18.123H314a18.191 18.191 0 0 0-18.124 18.123v97.349a71.634 71.634 0 0 1 37.568 19.745c1.861.017 4.763-.049 6.72-.049zm81.485 38.285a5.5 5.5 0 0 1 0 10.99h-12.919a5.5 5.5 0 0 1 0-10.99zm-40.743 0a5.5 5.5 0 1 1 0 10.99h-12.918a5.5 5.5 0 1 1 0-10.99z" data-original="#72b3d0" class="" opacity="1"></path></g></svg>