<svg xmlns="http://www.w3.org/2000/svg" version="1.1" xmlns:xlink="http://www.w3.org/1999/xlink" xmlns:svgjs="http://svgjs.com/svgjs" width="512" height="512" x="0" y="0" viewBox="0 0 512 512" style="enable-background:new 0 0 512 512" xml:space="preserve"><g><path fill="#ffffff" fill-rule="evenodd" d="M368.7 105.831H204.772L180.866 205.7h163.925zm-15.8-9.115h16.384a8.624 8.624 0 0 1 8.382 10.637l-24.884 103.953a4.539 4.539 0 0 1-4.415 3.488v.019H175.109a4.546 4.546 0 0 1-4.534-5.031L172.759 69a4.54 4.54 0 0 1 4.54-4.486v-.018h39.494a4.552 4.552 0 0 1 3.675 1.862l11.823 13.879 115.92-.317a4.541 4.541 0 0 1 4.54 4.469l.149 12.331zm-148.485 0a8.624 8.624 0 0 0-8.383 6.637l-15.745 65.773 1.482-95.519H214.7l12.034 14.127a4.538 4.538 0 0 0 3.691 1.584l113.312-.31.064 7.708zm-2.953 98.753c-6 0-6-9.116 0-9.116h23.29c6 0 6 9.116 0 9.116zm2.387-16.044c-6 0-6-9.116 0-9.116h20.9c6 0 6 9.116 0 9.116zM334.4 305.334l.981 111.731c.062 9.583-9.4 17.873-24.711 23.535-29.91 11.062-78.219 11.464-108.251.749-15.272-5.449-24.729-13.615-24.8-23.211l-.981-111.754c-.273-9.443 9.483-17.954 24.6-23.565 29.94-11.109 78.151-11.423 108.235-.709 15.332 5.46 24.851 13.633 24.926 23.224zm-147.9 90.723.193 22.027c.035 5.33 7.2 10.55 18.787 14.684 28.133 10.037 74.029 9.651 102.055-.714 11.609-4.293 18.792-9.615 18.763-14.946l-.193-22.053a59.656 59.656 0 0 1-15.756 8.31c-31.907 11.815-96.786 13.1-123.849-7.308zm-.327-37.229.193 21.935c.036 5.337 7.23 10.578 18.848 14.732 28.143 10.062 74 9.693 102-.676 11.613-4.3 18.791-9.634 18.756-14.975l-.193-22c-28.28 21.928-110.962 22.548-139.605.982zm-.326-37.242.192 21.963c.035 5.331 7.24 10.564 18.869 14.713 28.15 10.045 74.006 9.713 102.032-.675 11.585-4.294 18.74-9.621 18.705-14.961l-.193-22c-28.186 21.869-110.851 22.579-139.6.957zm-.134-15.262c.092 5.377 7.2 10.545 18.873 14.7 28.133 10.019 74.04 9.714 102.039-.675 24.908-9.242 24.882-20.736-.18-29.662-28.133-10.019-74.04-9.715-102.039.674-11.577 4.3-18.722 9.622-18.693 14.959zm124.967 39.587 1.072-.008a4.54 4.54 0 1 0-.035-9.08l-1.073.008c-5.983.031-5.937 9.1.036 9.08zm-27.975 6.879 1.072-.007a4.54 4.54 0 1 0-.035-9.08l-1.073.007c-5.983.031-5.937 9.1.036 9.08zm13.994-2.324 1.073-.007a4.54 4.54 0 0 0-.035-9.08l-1.073.007c-5.983.031-5.937 9.1.035 9.08zm14.219 31.679 1.073-.008a4.54 4.54 0 1 0-.036-9.08l-1.073.008c-5.983.031-5.936 9.1.036 9.08zm-27.975 6.879 1.073-.007a4.54 4.54 0 1 0-.036-9.08l-1.073.007c-5.983.032-5.936 9.1.036 9.08zm13.995-2.324 1.073-.007a4.54 4.54 0 1 0-.036-9.08l-1.073.007c-5.982.031-5.937 9.1.036 9.08zm14.241 35.02 1.072-.007a4.54 4.54 0 1 0-.035-9.08l-1.073.007c-5.983.032-5.937 9.1.036 9.08zm-27.972 6.88 1.072-.007a4.54 4.54 0 0 0-.035-9.08l-1.073.007c-5.983.032-5.937 9.1.036 9.08zm13.994-2.323 1.073-.007a4.54 4.54 0 0 0-.035-9.08l-1.073.007c-5.983.031-5.937 9.1.035 9.08zM134.932 77.747l-18.974-2.72c85.083-66.009 205.492-63.575 288.1 6.5a4.548 4.548 0 0 0 5.875-6.944C324.286 1.931 199.626-.823 111.167 67.236l2.554-17.811c.846-5.926-8.162-7.216-9.009-1.282l-4.2 29.271a4.55 4.55 0 0 0 3.864 5.145l29.271 4.2c5.928.847 7.213-8.165 1.282-9.009zm299.785 57.167c-.75 5.931-9.761 4.788-9.009-1.14l3.709-29.085a4.532 4.532 0 0 1 5.369-4.149l29.07 3.707c5.934.754 4.787 9.761-1.139 9.009l-18.107-2.309c68.3 88.574 65.392 213.637-7.185 298.98a4.548 4.548 0 1 1-6.943-5.876c69.918-82.216 72.609-202.723 6.632-287.931l-2.4 18.794zM77.932 377.085a4.552 4.552 0 0 1 9.009 1.318l-4.373 29.245a4.552 4.552 0 0 1-5.163 3.845l-29.245-4.372a4.552 4.552 0 0 1 1.317-9.009l17.705 2.647c-68-88.456-65.218-213.065 7.41-298.686a4.548 4.548 0 0 1 6.944 5.876c-70.094 82.633-72.51 203.081-6.45 288.166zM377.081 433.8l19.152 3.038c-85.09 66.145-205.6 63.762-288.276-6.364a4.548 4.548 0 0 0-5.875 6.944c85.584 72.6 210.125 75.405 298.577 7.493l-2.78 17.528c-.937 5.907 8.036 7.331 8.973 1.424l4.6-28.99a4.534 4.534 0 0 0-3.948-5.447l-29-4.6c-5.904-.937-7.33 8.035-1.423 8.974z" data-original="#ffb679" opacity="1"></path></g></svg>