<svg xmlns="http://www.w3.org/2000/svg" version="1.1" xmlns:xlink="http://www.w3.org/1999/xlink" xmlns:svgjs="http://svgjs.com/svgjs" width="512" height="512" x="0" y="0" viewBox="0 0 682.667 682.667" style="enable-background:new 0 0 512 512" xml:space="preserve" class=""><g><defs><clipPath id="a" clipPathUnits="userSpaceOnUse"><path d="M0 512h512V0H0Z" fill="#ffffff" data-original="#000000" opacity="1" class=""></path></clipPath></defs><g clip-path="url(#a)" transform="matrix(1.33333 0 0 -1.33333 0 682.667)"><path d="m0 0-80.683-102.861c-5.812-7.41-16.53-8.722-23.947-2.932l-24.54 19.157" style="stroke-width:15;stroke-linecap:round;stroke-linejoin:round;stroke-miterlimit:10;stroke-dasharray:none;stroke-opacity:1" transform="translate(325.033 130.849)" fill="none" stroke="#ffffff" stroke-width="15" stroke-linecap="round" stroke-linejoin="round" stroke-miterlimit="10" stroke-dasharray="none" stroke-opacity="" data-original="#060606" opacity="1"></path><path d="m0 0 152.568 194.507c5.812 7.41 16.53 8.722 23.948 2.932L333.244 75.088c7.428-5.798 8.732-16.521 2.911-23.942l-35.38-45.105" style="stroke-width:15;stroke-linecap:round;stroke-linejoin:round;stroke-miterlimit:10;stroke-dasharray:none;stroke-opacity:1" transform="translate(164.382 303.45)" fill="none" stroke="#ffffff" stroke-width="15" stroke-linecap="round" stroke-linejoin="round" stroke-miterlimit="10" stroke-dasharray="none" stroke-opacity="" data-original="#060606" opacity="1"></path><path d="m0 0 66.45 44.489c7.827 5.24 18.418 3.155 23.662-4.659l110.725-164.993c5.249-7.823 3.151-18.423-4.685-23.67l-345.133-231.069c-7.828-5.24-18.417-3.155-23.662 4.659L-283.367-210.25c-5.25 7.823-3.153 18.423 4.683 23.67L-34.841-23.326" style="stroke-width:15;stroke-linecap:round;stroke-linejoin:round;stroke-miterlimit:10;stroke-dasharray:none;stroke-opacity:1" transform="translate(294.092 390.291)" fill="none" stroke="#ffffff" stroke-width="15" stroke-linecap="round" stroke-linejoin="round" stroke-miterlimit="10" stroke-dasharray="none" stroke-opacity="" data-original="#060606" opacity="1"></path><path d="M0 0c-22.939 4.467-44.164 17.702-58.206 38.626-27.996 41.717-16.837 98.2 24.923 126.158 41.76 27.959 98.307 16.805 126.303-24.911 27.995-41.717 16.836-98.199-24.923-126.158A91.012 91.012 0 0 0 42.391 1.783" style="stroke-width:15;stroke-linecap:round;stroke-linejoin:round;stroke-miterlimit:10;stroke-dasharray:none;stroke-opacity:1" transform="translate(235.42 133.335)" fill="none" stroke="#ffffff" stroke-width="15" stroke-linecap="round" stroke-linejoin="round" stroke-miterlimit="10" stroke-dasharray="none" stroke-opacity="" data-original="#060606" opacity="1"></path><path d="M0 0c22.741-33.888 13.678-79.77-20.245-102.481l-31.684 47.212c-5.243 7.813-3.139 18.4 4.698 23.647z" style="stroke-width:15;stroke-linecap:round;stroke-linejoin:round;stroke-miterlimit:10;stroke-dasharray:none;stroke-opacity:1" transform="translate(62.639 235.332)" fill="none" stroke="#ffffff" stroke-width="15" stroke-linecap="round" stroke-linejoin="round" stroke-miterlimit="10" stroke-dasharray="none" stroke-opacity="" data-original="#060606" opacity="1"></path><path d="M0 0c33.995 22.759 79.949 13.797 102.643-20.019L55.281-51.728c-7.838-5.247-18.441-3.168-23.684 4.645z" style="stroke-width:15;stroke-linecap:round;stroke-linejoin:round;stroke-miterlimit:10;stroke-dasharray:none;stroke-opacity:1" transform="translate(89.852 62.132)" fill="none" stroke="#ffffff" stroke-width="15" stroke-linecap="round" stroke-linejoin="round" stroke-miterlimit="10" stroke-dasharray="none" stroke-opacity="" data-original="#060606" opacity="1"></path><path d="M0 0c-22.741 33.888-13.678 79.77 20.245 102.481l31.684-47.212c5.243-7.813 3.139-18.4-4.698-23.647z" style="stroke-width:15;stroke-linecap:round;stroke-linejoin:round;stroke-miterlimit:10;stroke-dasharray:none;stroke-opacity:1" transform="translate(443.036 209.805)" fill="none" stroke="#ffffff" stroke-width="15" stroke-linecap="round" stroke-linejoin="round" stroke-miterlimit="10" stroke-dasharray="none" stroke-opacity="" data-original="#060606" opacity="1"></path><path d="M0 0c-33.995-22.759-79.949-13.797-102.643 20.019l47.362 31.709c7.838 5.247 18.441 3.168 23.684-4.645z" style="stroke-width:15;stroke-linecap:round;stroke-linejoin:round;stroke-miterlimit:10;stroke-dasharray:none;stroke-opacity:1" transform="translate(415.823 383.005)" fill="none" stroke="#ffffff" stroke-width="15" stroke-linecap="round" stroke-linejoin="round" stroke-miterlimit="10" stroke-dasharray="none" stroke-opacity="" data-original="#060606" opacity="1"></path><path d="m0 0 35.307 23.638" style="stroke-width:15;stroke-linecap:round;stroke-linejoin:round;stroke-miterlimit:10;stroke-dasharray:none;stroke-opacity:1" transform="translate(367.042 299.053)" fill="none" stroke="#ffffff" stroke-width="15" stroke-linecap="round" stroke-linejoin="round" stroke-miterlimit="10" stroke-dasharray="none" stroke-opacity="" data-original="#060606" opacity="1"></path><path d="m0 0 35.306 23.638" style="stroke-width:15;stroke-linecap:round;stroke-linejoin:round;stroke-miterlimit:10;stroke-dasharray:none;stroke-opacity:1" transform="translate(103.305 122.478)" fill="none" stroke="#ffffff" stroke-width="15" stroke-linecap="round" stroke-linejoin="round" stroke-miterlimit="10" stroke-dasharray="none" stroke-opacity="" data-original="#060606" opacity="1"></path><path d="M0 0s-14.571 2.252-25.662-11.218c-10.184-12.368-1.677-31.884 11.537-32.858 7.588-.559 17.223 1.255 29.7 4.455 27.927 7.163 40.886-30.178 18.014-45.713-8.926-6.062-13.499-8.301-24.821-8.438" style="stroke-width:15;stroke-linecap:round;stroke-linejoin:round;stroke-miterlimit:10;stroke-dasharray:none;stroke-opacity:1" transform="translate(244.326 269.444)" fill="none" stroke="#ffffff" stroke-width="15" stroke-linecap="round" stroke-linejoin="round" stroke-miterlimit="10" stroke-dasharray="none" stroke-opacity="" data-original="#060606" opacity="1"></path><path d="m0 0 68.445-101.993" style="stroke-width:15;stroke-linecap:round;stroke-linejoin:round;stroke-miterlimit:10;stroke-dasharray:none;stroke-opacity:1" transform="translate(217.247 274.513)" fill="none" stroke="#ffffff" stroke-width="15" stroke-linecap="round" stroke-linejoin="round" stroke-miterlimit="10" stroke-dasharray="none" stroke-opacity="" data-original="#060606" opacity="1"></path></g></g></svg>