<svg xmlns="http://www.w3.org/2000/svg" version="1.1" xmlns:xlink="http://www.w3.org/1999/xlink" xmlns:svgjs="http://svgjs.com/svgjs" width="512" height="512" x="0" y="0" viewBox="0 0 1707 1707" style="enable-background:new 0 0 512 512" xml:space="preserve" fill-rule="evenodd" class=""><g><path fill="#ffffff" d="M1338 1487c-7 0-13-2-20-4l-41-15c-9-3-14-12-11-21 4-9 13-13 22-10l42 15c12 4 27-2 31-15l311-873c2-6 1-13-1-19-3-6-8-10-14-12l-368-131c-9-3-13-13-10-22 3-8 13-13 21-10l368 131c14 5 26 16 33 30 6 14 7 30 2 44l-310 873c-9 24-31 39-55 39zM369 1487c-24 0-46-15-55-39L4 575c-6-14-5-30 2-44s18-25 33-30l367-131c9-3 19 2 22 10 3 9-2 19-10 22L50 533c-6 2-11 6-14 12s-3 13-1 19l310 873c5 13 19 19 32 15l42-15c9-3 18 1 21 10s-1 18-10 21l-42 15c-6 2-13 4-19 4z" data-original="#8985f3" opacity="1"></path><path fill="#ffffff" d="M1244 1486H463c-38 0-68-30-68-67V287c0-37 30-67 68-67h781c37 0 67 30 67 67v1132c0 37-30 67-67 67zM463 253c-19 0-34 16-34 34v1132c0 19 15 34 34 34h781c19 0 34-15 34-34V287c0-18-15-34-34-34z" data-original="#ea79c1" class="" opacity="1"></path><path fill="#ffffff" d="M646 711c-5 0-11-3-14-8-5-8-2-18 6-23l182-105c8-4 18-2 23 6s2 18-6 23L655 709c-3 2-6 2-9 2z" data-original="#ea79c1" class="" opacity="1"></path><path fill="#ffffff" d="M829 817c-20 0-40-3-59-8-59-16-108-53-138-106-30-52-38-114-23-172 27-99 117-168 219-168 20 0 40 2 59 7 9 3 14 12 12 21l-50 187 187 50c9 2 14 11 12 20-27 99-117 169-219 169zm-1-421c-87 0-164 59-187 144-13 49-6 102 20 146 26 45 67 77 117 91 17 4 34 6 51 6 81 0 154-51 182-127l-187-50c-4-1-8-4-10-8s-3-8-2-13l50-186c-11-2-22-3-34-3z" data-original="#ea79c1" class="" opacity="1"></path><path fill="#ffffff" d="M1081 632c-1 0-3 0-4-1l-203-54c-4-1-8-4-10-8s-3-8-2-12l55-204c2-8 11-14 20-11 121 32 193 157 160 278-1 4-4 8-7 10-3 1-6 2-9 2zm-182-83 170 46c16-93-37-184-125-216zM1176 1366H531c-9 0-17-8-17-17s8-17 17-17h645c9 0 16 8 16 17s-7 17-16 17zm0-116H531c-9 0-17-7-17-17 0-9 8-16 17-16h645c9 0 16 7 16 16 0 10-7 17-16 17zm0-115H531c-9 0-17-8-17-17s8-17 17-17h645c9 0 16 8 16 17s-7 17-16 17zm0-116H531c-9 0-17-7-17-16s8-17 17-17h645c9 0 16 8 16 17s-7 16-16 16zm0-115H531c-9 0-17-7-17-17 0-9 8-16 17-16h645c9 0 16 7 16 16 0 10-7 17-16 17z" data-original="#ea79c1" class="" opacity="1"></path></g></svg>