<svg class="svg-icon" style="width: 1em;height: 1em;vertical-align: middle;fill: currentColor;overflow: hidden;" viewBox="0 0 1024 1024" version="1.1" xmlns="http://www.w3.org/2000/svg"><path d="M600 584h272a16 16 0 0 1 16 16v48a16 16 0 0 1-16 16h-272a16 16 0 0 1-16-16v-48a16 16 0 0 1 16-16z" fill="#0f81c7" /><path d="M872 672h-272c-13.232 0-24-10.768-24-24v-48c0-13.232 10.768-24 24-24h272c13.232 0 24 10.768 24 24v48c0 13.232-10.768 24-24 24z m-272-80a8 8 0 0 0-8 8v48a8 8 0 0 0 8 8h272a8 8 0 0 0 8-8v-48a8 8 0 0 0-8-8h-272zM648 784h-64a8 8 0 0 1-8-8v-64a8 8 0 0 1 8-8h64a8 8 0 0 1 8 8v64a8 8 0 0 1-8 8zM592 768h48v-48h-48v48z" fill="#263238" /><path d="M712 784h-64a8 8 0 0 1-8-8v-64a8 8 0 0 1 8-8h64a8 8 0 0 1 8 8v64a8 8 0 0 1-8 8zM656 768h48v-48h-48v48z" fill="#263238" /><path d="M776 784h-64a8 8 0 0 1-8-8v-64a8 8 0 0 1 8-8h64a8 8 0 0 1 8 8v64a8 8 0 0 1-8 8zM720 768h48v-48h-48v48zM888 784h-64a8 8 0 0 1-8-8v-64a8 8 0 0 1 8-8h64a8 8 0 0 1 8 8v64a8 8 0 0 1-8 8zM832 768h48v-48h-48v48zM648 848h-64a8 8 0 0 1-8-8v-64a8 8 0 0 1 8-8h64a8 8 0 0 1 8 8v64a8 8 0 0 1-8 8zM592 832h48v-48h-48v48z" fill="#263238" /><path d="M712 848h-64a8 8 0 0 1-8-8v-64a8 8 0 0 1 8-8h64a8 8 0 0 1 8 8v64a8 8 0 0 1-8 8zM656 832h48v-48h-48v48z" fill="#263238" /><path d="M776 848h-64a8 8 0 0 1-8-8v-64a8 8 0 0 1 8-8h64a8 8 0 0 1 8 8v64a8 8 0 0 1-8 8zM720 832h48v-48h-48v48zM888 848h-64a8 8 0 0 1-8-8v-64a8 8 0 0 1 8-8h64a8 8 0 0 1 8 8v64a8 8 0 0 1-8 8zM832 832h48v-48h-48v48zM648 912h-64a8 8 0 0 1-8-8v-64a8 8 0 0 1 8-8h64a8 8 0 0 1 8 8v64a8 8 0 0 1-8 8zM592 896h48v-48h-48v48z" fill="#263238" /><path d="M712 912h-64a8 8 0 0 1-8-8v-64a8 8 0 0 1 8-8h64a8 8 0 0 1 8 8v64a8 8 0 0 1-8 8zM656 896h48v-48h-48v48z" fill="#263238" /><path d="M776 912h-64a8 8 0 0 1-8-8v-64a8 8 0 0 1 8-8h64a8 8 0 0 1 8 8v64a8 8 0 0 1-8 8zM720 896h48v-48h-48v48zM888 912h-64a8 8 0 0 1-8-8v-64a8 8 0 0 1 8-8h64a8 8 0 0 1 8 8v64a8 8 0 0 1-8 8zM832 896h48v-48h-48v48z" fill="#263238" /><path d="M896 960H576c-26.464 0-48-21.536-48-48V576c0-26.464 21.536-48 48-48h320c26.464 0 48 21.536 48 48v336c0 26.464-21.536 48-48 48zM576 544c-17.648 0-32 14.352-32 32v336c0 17.648 14.352 32 32 32h320c17.648 0 32-14.352 32-32V576c0-17.648-14.352-32-32-32H576zM792 512c-30.88 0-56-25.12-56-56v-336C736 97.952 718.064 80 696 80a8 8 0 0 1 0-16C726.88 64 752 89.136 752 120v336c0 22.048 17.936 40 40 40a8 8 0 0 1 0 16z" fill="#263238" /><path d="M792 512a8 8 0 0 1 0-16c22.064 0 40-17.952 40-40V240h-64a8 8 0 0 1 0-16h72a8 8 0 0 1 8 8v224c0 30.864-25.12 56-56 56zM424 480h-160a8 8 0 0 1 0-16h160a8 8 0 0 1 0 16zM424 528h-160a8 8 0 0 1 0-16h160a8 8 0 0 1 0 16zM424 576h-160a8 8 0 0 1 0-16h160a8 8 0 0 1 0 16zM488 680h-224a8 8 0 0 1 0-16h224a8 8 0 0 1 0 16zM488 760h-224a8 8 0 0 1 0-16h224a8 8 0 0 1 0 16z" fill="#263238" /><path d="M184 310m-128 0a128 128 0 1 0 256 0 128 128 0 1 0-256 0Z" fill="#da77f2" /><path d="M184 446c-74.992 0-136-61.008-136-136s61.008-136 136-136 136 61.008 136 136-61.008 136-136 136z m0-256c-66.176 0-120 53.824-120 120s53.824 120 120 120 120-53.824 120-120-53.824-120-120-120zM184 880a8 8 0 0 1-8-8V470a8 8 0 0 1 16 0v382.688l26.336-26.336a8 8 0 0 1 11.312 0l34.336 34.336 34.336-34.336a8 8 0 0 1 11.312 0l34.336 34.336 34.336-34.336a8 8 0 0 1 11.312 0l34.336 34.336 34.336-34.336a8 8 0 0 1 11.312 0l40 40a8 8 0 0 1-11.312 11.312L464 843.312l-34.336 34.336a8 8 0 0 1-11.312 0L384 843.312l-34.336 34.336a8 8 0 0 1-11.312 0L304 843.312l-34.336 34.336a8 8 0 0 1-11.312 0L224 843.312l-34.336 34.336A8 8 0 0 1 184 880z" fill="#263238" /><path d="M648 512a8 8 0 0 1-8-8v-384c0-15.664 6.448-29.824 16.848-40H232A40.048 40.048 0 0 0 192 120v30a8 8 0 0 1-16 0V120C176 89.12 201.12 64 232 64h464a8 8 0 0 1 0 16A40.048 40.048 0 0 0 656 120v384a8 8 0 0 1-8 8zM184 278a8 8 0 0 1-8-8v-24a8 8 0 0 1 16 0v24a8 8 0 0 1-8 8zM184 382a8 8 0 0 1-8-8v-24a8 8 0 0 1 16 0v24a8 8 0 0 1-8 8z" fill="#263238" /><path d="M196 358H152a8 8 0 0 1 0-16h44a12 12 0 0 0 0-24h-24c-15.44 0-28-12.56-28-28s12.56-28 28-28H208a8 8 0 0 1 0 16h-36a12 12 0 0 0 0 24h24c15.44 0 28 12.56 28 28s-12.56 28-28 28zM456 944h-160a8 8 0 0 1 0-16h160a8 8 0 0 1 0 16zM264 944h-16a8 8 0 0 1 0-16h16a8 8 0 0 1 0 16zM968 192h-64a8 8 0 0 1 0-16h64a8 8 0 0 1 0 16zM872 112h-64a8 8 0 0 1 0-16h64a8 8 0 0 1 0 16z" fill="#263238" /><path d="M840 144a8 8 0 0 1-8-8v-64a8 8 0 0 1 16 0v64a8 8 0 0 1-8 8z" fill="#263238" /><path d="M936 224a8 8 0 0 1-8-8v-64a8 8 0 0 1 16 0v64a8 8 0 0 1-8 8z" fill="#263238" /><path d="M584 224h-160a8 8 0 0 1-8-8v-64a8 8 0 0 1 8-8h160a8 8 0 0 1 8 8v64a8 8 0 0 1-8 8zM432 208h144v-48h-144v48z" fill="#263238" /></svg>